 <svg xmlns="http://www.w3.org/2000/svg" viewBox="0 0 2000 2000"><filter id="b"><feGaussianBlur stdDeviation="12" /></filter><path fill="#817c70" d="M0 0h2000v2000H0z" /><g filter="url(#b)" transform="translate(4 4) scale(7.8125)" fill-opacity=".5"><ellipse fill="#000210" rx="1" ry="1" transform="matrix(50.41098 -3.7951 11.14787 148.07886 107 194.6)" /><ellipse fill="#eee3bb" rx="1" ry="1" transform="matrix(-56.38179 17.684 -24.48514 -78.06584 205 110.1)" /><ellipse fill="#fff4bd" rx="1" ry="1" transform="matrix(35.40604 -5.49219 14.85017 95.73337 16.4 123.6)" /><ellipse fill="#79c7db" cx="21" cy="39" rx="65" ry="65" /><ellipse fill="#0c1320" cx="117" cy="38" rx="34" ry="47" /><ellipse fill="#5cb0cd" rx="1" ry="1" transform="matrix(-39.46201 77.24476 -54.56092 -27.87353 219.2 7.9)" /><path fill="#e57339" d="M271 159l-123-16 43 128z" /><ellipse fill="#47332f" cx="214" cy="237" rx="242" ry="19" /></g></svg>
            <svg width="142" height="36" style="padding-left:10px" viewBox="0 0 142 36" fill="none"
              xmlns="http://www.w3.org/2000/svg">
              <path
                d="M0.00134641 20.8872C0.00134641 17.7722 0.00134641 14.6572 0.00134641 11.5422C0.00134641 11.3548 -0.0197723 11.3838 0.162903 11.3838H15.0293C15.2236 11.3838 15.1972 11.4087 15.1972 11.217C15.1972 10.6262 15.2025 10.0354 15.1972 9.44409C15.1877 8.54655 14.9961 7.69231 14.5763 6.8993C13.7453 5.32966 12.4671 4.3165 10.7317 3.92369C9.98324 3.75777 9.209 3.74449 8.45528 3.88463C7.70157 4.02478 6.98386 4.31547 6.34505 4.73933C5.70625 5.1632 5.15948 5.71152 4.73744 6.35153C4.3154 6.99154 4.02675 7.71008 3.88875 8.46419C3.835 8.75033 3.80568 9.04053 3.80111 9.33164C3.80111 9.50111 3.8254 9.48264 3.64272 9.48316H0.158154C0.133012 9.48158 0.107796 9.48158 0.082655 9.48316C0.0119078 9.49267 -0.00234715 9.45624 0.000292675 9.39447C0.00557232 9.24716 0.000290613 9.09881 0.0113779 8.9515C0.0438977 8.34556 0.136034 7.7443 0.286449 7.15642C0.936549 4.69716 2.33337 2.78522 4.4769 1.42061C5.43835 0.812206 6.50473 0.388234 7.62146 0.17039C8.1623 0.0546766 8.71405 -0.00232178 9.26713 0.000384881C9.53111 0.0046086 9.79087 -0.00595118 10.0522 0.00566405C10.7735 0.0372255 11.4879 0.159986 12.1783 0.371017C14.5953 1.10735 16.4448 2.56524 17.7267 4.74468C18.2867 5.70088 18.668 6.75106 18.8518 7.84383C18.9487 8.40619 18.997 8.97587 18.9959 9.54652C18.9959 11.3743 18.9959 13.202 18.9959 15.0294C18.9959 15.2031 19.0176 15.1825 18.8375 15.1825H3.97111C3.77154 15.1825 3.79794 15.1514 3.79794 15.3562C3.79794 20.3117 3.79794 25.267 3.79794 30.2222C3.79794 30.4128 3.82593 30.3953 3.62002 30.3953H0.151818C-0.0123787 30.3953 0.00187489 30.4112 0.00187489 30.247C0.00152292 27.1263 0.00134641 24.0064 0.00134641 20.8872Z"
                fill="#38887B"></path>
              <path
                d="M13.3049 18.9807H18.9013C18.9963 18.9807 18.9963 18.9807 18.9984 19.0805V19.1433C18.9984 22.8366 18.9984 26.5297 18.9984 30.2227C18.9984 30.4064 19.0259 30.3943 18.8316 30.3943H7.76493C7.58278 30.3943 7.60178 30.4154 7.60178 30.2359C7.60178 29.0705 7.60178 27.9056 7.60178 26.7413C7.60178 26.7202 7.60178 26.699 7.60178 26.6779C7.60442 26.5829 7.60442 26.5829 7.70104 26.5813H15.045C15.2214 26.5813 15.1997 26.6003 15.1997 26.4266C15.1997 25.2619 15.1997 24.0971 15.1997 22.932C15.1997 22.7646 15.2172 22.7821 15.0519 22.7821H7.75859C7.58119 22.7821 7.6002 22.8053 7.6002 22.6305C7.6002 21.4651 7.6002 20.3003 7.6002 19.1359C7.6002 18.9596 7.58225 18.9839 7.75859 18.9839L13.3049 18.9807Z"
                fill="#38887B"></path>
              <path
                d="M34.5994 18.23V27.5825C34.5994 28.0125 34.5134 28.4138 34.3414 28.7865C34.1837 29.1591 33.9615 29.4888 33.6749 29.7755C33.4025 30.0621 33.0729 30.2915 32.6859 30.4635C32.3132 30.6211 31.9119 30.7 31.4819 30.7H25.0749C24.6449 30.7 24.2364 30.6211 23.8494 30.4635C23.4767 30.2915 23.147 30.0621 22.8604 29.7755C22.588 29.4888 22.3659 29.1591 22.1939 28.7865C22.0362 28.4138 21.9574 28.0125 21.9574 27.5825V18.23H25.2469V27.4105H31.3099V18.23H34.5994ZM40.6177 21.5195V27.4105H45.2402V30.7H40.4672C40.0372 30.7 39.6287 30.6211 39.2417 30.4635C38.8547 30.2915 38.5178 30.0621 38.2312 29.7755C37.9588 29.4888 37.7367 29.1591 37.5647 28.7865C37.407 28.4138 37.3282 28.0125 37.3282 27.5825V14.532H40.6177V18.23H45.2402V21.5195H40.6177ZM60.6379 18.23V27.5825C60.6379 28.0125 60.5519 28.4138 60.3799 28.7865C60.2222 29.1591 60 29.4888 59.7134 29.7755C59.441 30.0621 59.1114 30.2915 58.7244 30.4635C58.3517 30.6211 57.9504 30.7 57.5204 30.7H51.1134C50.6834 30.7 50.2749 30.6211 49.8879 30.4635C49.5152 30.2915 49.1855 30.0621 48.8989 29.7755C48.6265 29.4888 48.4044 29.1591 48.2324 28.7865C48.0747 28.4138 47.9959 28.0125 47.9959 27.5825V18.23H51.2854V27.4105H57.3484V18.23H60.6379ZM76.1081 32.506C76.1081 32.936 76.0221 33.3373 75.8501 33.71C75.6925 34.097 75.4703 34.4266 75.1836 34.699C74.9113 34.9856 74.5816 35.2078 74.1946 35.3655C73.822 35.5375 73.4206 35.6235 72.9906 35.6235H65.4226V32.3125H72.8186V30.7H66.5836C66.1536 30.7 65.7451 30.6211 65.3581 30.4635C64.9855 30.2915 64.6558 30.0621 64.3691 29.7755C64.0825 29.4888 63.8531 29.1591 63.6811 28.7865C63.5235 28.4138 63.4446 28.0125 63.4446 27.5825V21.3475C63.4446 20.9175 63.5235 20.5161 63.6811 20.1435C63.8531 19.7708 64.0825 19.4411 64.3691 19.1545C64.6558 18.8678 64.9855 18.6456 65.3581 18.488C65.7451 18.316 66.1536 18.23 66.5836 18.23H72.9906C73.4206 18.23 73.822 18.316 74.1946 18.488C74.5816 18.6456 74.9113 18.8678 75.1836 19.1545C75.4703 19.4411 75.6925 19.7708 75.8501 20.1435C76.0221 20.5161 76.1081 20.9175 76.1081 21.3475V32.506ZM66.7341 27.4105H72.8186V21.5195H66.7341V27.4105ZM91.4425 18.23V27.5825C91.4425 28.0125 91.3565 28.4138 91.1845 28.7865C91.0268 29.1591 90.8047 29.4888 90.518 29.7755C90.2457 30.0621 89.916 30.2915 89.529 30.4635C89.1563 30.6211 88.755 30.7 88.325 30.7H81.918C81.488 30.7 81.0795 30.6211 80.6925 30.4635C80.3198 30.2915 79.9902 30.0621 79.7035 29.7755C79.4312 29.4888 79.209 29.1591 79.037 28.7865C78.8793 28.4138 78.8005 28.0125 78.8005 27.5825V18.23H82.09V27.4105H88.153V18.23H91.4425ZM104.22 18.23C104.65 18.23 105.052 18.316 105.424 18.488C105.811 18.6456 106.141 18.8678 106.413 19.1545C106.7 19.4411 106.922 19.7708 107.08 20.1435C107.252 20.5161 107.338 20.9175 107.338 21.3475V30.7H97.8132C97.3832 30.7 96.9747 30.6211 96.5877 30.4635C96.215 30.2915 95.8854 30.0621 95.5987 29.7755C95.3264 29.4888 95.1042 29.1591 94.9322 28.7865C94.7745 28.4138 94.6957 28.0125 94.6957 27.5825V22.8095H104.048V21.5195H94.6957V18.23H104.22ZM104.048 25.6905H97.9852V27.4105H104.048V25.6905ZM120.023 18.23V21.5195H113.293V30.7H110.004V21.3475C110.004 20.9175 110.082 20.5161 110.24 20.1435C110.412 19.7708 110.641 19.4411 110.928 19.1545C111.215 18.8678 111.544 18.6456 111.917 18.488C112.304 18.316 112.713 18.23 113.143 18.23H120.023ZM135 14.145V30.7H125.454C125.024 30.7 124.615 30.6211 124.228 30.4635C123.856 30.2915 123.526 30.0621 123.239 29.7755C122.967 29.4888 122.745 29.1591 122.573 28.7865C122.415 28.4138 122.336 28.0125 122.336 27.5825V21.3475C122.336 20.9175 122.415 20.5161 122.573 20.1435C122.745 19.7708 122.967 19.4411 123.239 19.1545C123.526 18.8678 123.856 18.6456 124.228 18.488C124.615 18.316 125.024 18.23 125.454 18.23H131.71V14.145H135ZM125.647 27.4105H131.71V21.5195H125.647V27.4105Z"
                fill="#97B1AB"></path>
            </svg>